<svg xmlns="http://www.w3.org/2000/svg" xmlns:xlink="http://www.w3.org/1999/xlink" width="570px" height="76px">
<path fill-rule="evenodd" fill="rgb(203, 240, 224)" d="M81.781,25.394 C94.517,23.199 108.633,21.181 124.000,19.714 C131.630,18.943 139.444,18.220 147.353,17.524 C155.304,16.867 163.446,16.313 171.533,15.722 C203.926,13.337 236.778,11.674 265.535,8.614 C300.119,4.953 337.987,2.383 376.540,1.225 L390.990,0.754 C395.816,0.633 400.655,0.557 405.488,0.467 C415.153,0.297 424.806,0.148 434.417,0.030 C444.047,0.021 453.628,0.013 463.132,0.003 C467.882,0.012 472.619,0.019 477.333,0.026 C482.046,0.085 486.742,0.142 491.408,0.200 C491.051,2.146 484.510,4.988 490.450,6.039 C514.219,9.266 512.862,13.155 511.892,17.042 C511.380,18.985 494.532,16.819 499.871,18.838 C491.241,18.739 479.689,18.803 472.476,19.246 C465.245,19.724 462.395,20.451 470.857,21.434 C476.297,23.376 499.258,21.772 504.209,24.744 C509.017,27.731 497.329,30.509 502.096,33.492 C507.500,33.514 518.207,33.796 523.569,33.929 C528.169,36.003 516.302,39.625 521.558,39.754 C529.020,40.944 537.995,41.317 547.636,41.670 C557.271,42.025 559.698,42.158 570.000,42.530 C569.387,43.490 570.167,44.511 569.631,45.352 C569.369,45.773 568.774,46.149 567.519,46.450 C566.352,46.761 564.590,47.005 561.930,47.156 C473.600,44.518 390.675,46.460 303.927,51.703 C216.966,56.937 134.141,65.324 56.315,75.647 C37.083,77.405 41.966,72.179 49.884,67.603 C47.304,69.120 41.582,66.598 38.967,68.120 C36.071,66.865 34.476,64.852 35.795,62.682 C36.452,61.596 37.839,60.472 40.133,59.386 C42.442,58.305 45.587,57.229 50.027,56.385 C45.132,57.012 40.493,57.755 35.759,58.460 C29.165,58.326 30.150,55.925 26.451,54.227 C31.283,53.501 36.098,52.775 34.283,51.919 C32.468,51.069 28.828,49.361 27.010,48.509 C22.083,49.252 12.200,50.738 7.270,51.480 C12.200,50.738 17.134,49.995 15.277,49.148 C13.414,48.301 9.689,46.608 7.823,45.759 C15.976,43.313 35.259,43.028 43.784,40.745 L38.669,38.143 C26.489,38.717 12.284,41.616 2.244,43.222 C5.502,41.604 3.687,40.751 -0.000,39.051 C3.407,38.236 7.397,37.687 11.578,37.235 C15.744,36.773 20.071,36.394 24.278,35.963 C32.756,35.126 40.517,33.970 46.322,31.708 C40.817,32.345 35.476,33.074 30.135,33.799 C30.685,32.357 33.209,31.243 36.985,30.385 C40.808,29.553 45.823,28.947 51.200,28.433 C62.007,27.424 74.026,26.689 81.781,25.394 Z"/>
</svg>