<svg xmlns="http://www.w3.org/2000/svg" id="Capa_1" enable-background="new 0 0 512 512" height="512" viewBox="0 0 512 512" width="512"><g><path d="m512 256c0 138.372-109.783 251.103-247 255.844-33.691-67.894-102.94-110.837-178.733-110.837h-41.267c-28.467-41.343-45.097-91.467-45-145.481.26-143.514 117.247-258.087 260.739-255.482 139.198 2.526 251.261 116.154 251.261 255.956z" fill="#ffb52d"/><path d="m480 225c0 112.114-90.886 203-203 203s-203-90.886-203-203 90.886-203 203-203 203 90.887 203 203z" fill="#ffc14f"/><path d="m512 95v75.385c0 52.467-42.533 95-95 95h-59.945l-27.736 32.359c-1.228 1.432-3.02 2.257-4.906 2.257-4.293 0-7.393-4.109-6.213-8.237l7.537-26.379h-15.275c-52.467 0-95-42.533-95-95v-75.385c0-52.467 42.533-95 95-95h106.538c52.467.001 95 42.533 95 95z" fill="#f44545"/><path d="m265 170.385v-75.385c0-52.467 42.533-95 95-95h57c52.467 0 95 42.533 95 95v75.385c0 52.467-42.533 95-95 95h-57c-52.467 0-95-42.533-95-95z" fill="#fb5858"/><path d="m369.645 170 14.137-14.137c8.708-8.708 23.689-3.803 25.45 8.385 1.743 12.058-2.025 24.759-11.302 34.036-15.621 15.621-40.948 15.621-56.568 0l-70.711-70.711c-15.621-15.621-15.621-40.947 0-56.568 15.621-15.621 40.948-15.621 56.569 0l-28.286 28.285z" fill="#fccfc9"/><path d="m330.754 74.541c5.858 5.858 5.858 15.355 0 21.213l-17.678 17.678-42.426-42.427 17.678-17.678c5.858-5.858 15.355-5.858 21.213 0zm111.746-7.041h-20v-20c0-4.142-3.358-7.5-7.5-7.5s-7.5 3.358-7.5 7.5v20h-20c-4.142 0-7.5 3.358-7.5 7.5s3.358 7.5 7.5 7.5h20v20c0 4.142 3.358 7.5 7.5 7.5s7.5-3.358 7.5-7.5v-20h20c4.142 0 7.5-3.358 7.5-7.5s-3.358-7.5-7.5-7.5zm-48.107 70.681c-5.858-5.858-15.355-5.858-21.213 0l-17.678 17.678 42.426 42.426 17.678-17.678c5.858-5.858 5.858-15.355 0-21.213z" fill="#fff5f5"/><path d="m105 215v20c0 8.284-6.716 15-15 15h-40c-8.284 0-15-6.716-15-15v-20c0-8.284 6.716-15 15-15h40c8.284 0 15 6.716 15 15zm-55-25h40c8.284 0 15-6.716 15-15s-6.716-15-15-15h-40c-8.284 0-15 6.716-15 15 0 8.285 6.716 15 15 15z" fill="#9773bd"/><path d="m265 155v356.844c-2.987.103-5.988.155-9 .155-5.861 0-11.675-.197-17.438-.585-1.434-.096-12.134-11.795-13.562-11.915-107.316-9.021-180-88.291-180-195.985v-148.514c0-8.284 6.716-15 15-15h190c8.284 0 15 6.716 15 15z" fill="#754ca0"/><path d="m60 140h40c-8.284 0-15 6.716-15 15v271.375c0 7.669-9.376 11.446-14.657 5.885-9.235-9.724-17.714-20.173-25.343-31.253v-246.007c0-8.284 6.716-15 15-15z" fill="#644189"/><path d="m240 204v307.507c-66.85-4.122-126.758-33.901-170-79.61v-227.897c0-8.284 6.716-15 15-15h140c8.284 0 15 6.716 15 15z" fill="#ffe7c0"/><path d="m130.736 440.032c-.404-.326-.806-.652-1.208-.98-15.588-12.723-24.528-31.862-24.528-51.983v-196.069h120c8.284 0 15 6.716 15 15v181.347c0 56.38-65.373 88.072-109.264 52.685z" fill="#fff5f5"/><path d="m202.515 245h-95.029c-4.134 0-7.485-3.351-7.485-7.485v-.029c0-4.134 3.351-7.485 7.485-7.485h95.029c4.134 0 7.485 3.351 7.485 7.485v.029c0 4.134-3.351 7.485-7.485 7.485zm-47.515 45c-11.046 0-20 8.954-20 20s8.954 20 20 20 20-8.954 20-20c0-11.045-8.954-20-20-20zm70 20c0 11.046-8.954 20-20 20s-20-8.954-20-20 8.954-20 20-20 20 8.955 20 20zm-100 50c0 11.046-8.954 20-20 20s-20-8.954-20-20 8.954-20 20-20 20 8.955 20 20zm50 0c0 11.046-8.954 20-20 20s-20-8.954-20-20 8.954-20 20-20 20 8.955 20 20zm-50 50c0 11.046-8.954 20-20 20s-20-8.954-20-20 8.954-20 20-20 20 8.954 20 20zm50 0c0 11.046-8.954 20-20 20s-20-8.954-20-20 8.954-20 20-20 20 8.954 20 20zm0 50c0 11.046-8.954 20-20 20s-20-8.954-20-20 8.954-20 20-20 20 8.954 20 20zm7.515-187.5h-55.029c-4.134 0-7.485-3.351-7.485-7.485v-.029c0-4.134 3.351-7.485 7.485-7.485h55.029c4.134 0 7.485 3.351 7.485 7.485v.029c0 4.134-3.351 7.485-7.485 7.485z" fill="#fbb3a8"/><path d="m125 310c0 11.046-8.954 20-20 20s-20-8.954-20-20 8.954-20 20-20 20 8.955 20 20zm80 70c11.046 0 20-8.954 20-20s-8.954-20-20-20-20 8.954-20 20 8.954 20 20 20zm0 10c-11.046 0-20 8.954-20 20s8.954 20 20 20 20-8.954 20-20-8.954-20-20-20z" fill="#e5554e"/><path d="m240 210h-170v-25c0-8.284 6.716-15 15-15h140c8.284 0 15 6.716 15 15z" fill="#fcc1b8"/><path d="m100 192.5c0 4.142-3.358 7.5-7.5 7.5s-7.5-3.358-7.5-7.5 3.358-7.5 7.5-7.5 7.5 3.358 7.5 7.5zm117.5-7.5c-4.142 0-7.5 3.358-7.5 7.5s3.358 7.5 7.5 7.5 7.5-3.358 7.5-7.5-3.358-7.5-7.5-7.5z" fill="#fa9084"/><path d="m155 200c-11.046 0-20-8.954-20-20v-25c0-8.284 6.716-15 15-15h10c8.284 0 15 6.716 15 15v25c0 11.046-8.954 20-20 20z" fill="#754ca0"/><path d="m162.5 177.5c0 4.142-3.358 7.5-7.5 7.5s-7.5-3.358-7.5-7.5 3.358-7.5 7.5-7.5 7.5 3.358 7.5 7.5z" fill="#60c8dd"/><path d="m330 345.344c0-4.142 3.358-7.5 7.5-7.5h5v-5c0-4.142 3.358-7.5 7.5-7.5s7.5 3.358 7.5 7.5v5h5c4.142 0 7.5 3.358 7.5 7.5s-3.358 7.5-7.5 7.5h-5v5c0 4.142-3.358 7.5-7.5 7.5s-7.5-3.358-7.5-7.5v-5h-5c-4.142 0-7.5-3.358-7.5-7.5z" fill="#ffd993"/><path d="m390 385.344c0-4.142 3.358-7.5 7.5-7.5h5v-5c0-4.142 3.358-7.5 7.5-7.5s7.5 3.358 7.5 7.5v5h5c4.142 0 7.5 3.358 7.5 7.5s-3.358 7.5-7.5 7.5h-5v5c0 4.142-3.358 7.5-7.5 7.5s-7.5-3.358-7.5-7.5v-5h-5c-4.142 0-7.5-3.358-7.5-7.5z" fill="#fff5f5"/></g></svg>